<?xml version="1.0" encoding="UTF-8" standalone="no"?><!-- Generator: Gravit.io --><svg xmlns="http://www.w3.org/2000/svg" xmlns:xlink="http://www.w3.org/1999/xlink" style="isolation:isolate" viewBox="0 0 2048 2048" width="2048pt" height="2048pt"><g><g><clipPath id="_clipPath_vYrDVTdpFcgswafTVmklfcULvFPzmjnm"><path d=" M 210 1182.539 C 210 733.29 574.733 368.557 1023.983 368.557 C 1473.232 368.557 1837.965 733.29 1837.965 1182.539 C 1837.965 1631.789 1473.232 1996.522 1023.983 1996.522 C 574.733 1996.522 210 1631.789 210 1182.539 Z " fill="rgb(255,255,255)"/></clipPath><g clip-path="url(#_clipPath_vYrDVTdpFcgswafTVmklfcULvFPzmjnm)"><g><path d=" M 210 1182.539 C 210 733.29 574.733 368.557 1023.983 368.557 C 1473.232 368.557 1837.965 733.29 1837.965 1182.539 C 1837.965 1631.789 1473.232 1996.522 1023.983 1996.522 C 574.733 1996.522 210 1631.789 210 1182.539 Z " fill="rgb(27,151,243)"/><g><path d=" M 1815.759 993.128 L 1802.451 988.178 L 1738.505 988.178 L 1691.306 950.119 L 1592.355 1023.194 L 1510.146 950.119 L 1370.087 976.001 L 1280.26 986.657 L 1265.034 1155.64 L 1301.571 1317.015 L 1450.775 1317.015 L 1533.745 1304.838 L 1569.522 1370.3 L 1607.587 1446.418 L 1540.598 1502.746 L 1596.925 1630.627 L 1587.785 1680.863 L 1637.473 1717.473 C 1762.317 1574.428 1837.965 1387.321 1837.965 1182.539 C 1837.965 1117.318 1830.246 1053.909 1815.759 993.128 Z " fill="rgb(111,193,255)"/><path d=" M 317.593 1106.421 L 370.369 1118.599 L 423.145 1153.106 L 494.195 1175.435 L 530.732 1184.57 L 565.239 1199.79 L 546.97 1236.328 L 490.134 1327.677 L 553.062 1402.777 L 642.375 1459.613 L 642.375 1510.364 L 701.242 1599.677 C 701.242 1599.677 695.151 1656.514 701.242 1674.783 C 707.328 1693.057 741.841 1788.456 741.841 1788.456 L 776.348 1833.11 L 859.575 1843.257 L 806.794 1758.005 C 806.794 1758.005 883.93 1640.27 890.021 1636.215 C 896.107 1632.154 865.661 1585.47 871.752 1579.378 C 877.838 1573.287 926.559 1520.517 926.559 1520.517 L 979.34 1453.522 L 1001.664 1366.239 L 934.681 1260.682 C 934.681 1260.682 859.575 1207.906 859.575 1201.82 C 859.575 1195.735 810.86 1142.953 810.86 1142.953 L 674.857 1138.892 L 597.721 1114.538 L 569.3 1165.283 L 504.347 1132.801 L 506.378 1079.169 L 461.724 1079.169 L 455.632 1079.169 L 427.211 1035.371 L 469.84 1002.889 L 557.123 1047.549 L 611.929 1013.042 L 670.796 875.008 L 723.578 808.019 L 818.977 808.019 L 833.19 775.542 L 896.118 745.096 L 922.509 762.604 L 950.93 720.736 L 896.124 643.6 L 853.495 629.387 L 837.777 644.148 L 786.506 692.309 L 666.741 663.888 L 650.503 720.725 L 597.721 653.742 L 666.735 629.381 L 743.871 649.681 L 774.317 619.234 L 871.752 605.021 L 792.586 521.799 L 701.242 521.799 L 664.705 580.666 L 628.167 533.977 L 539.844 528.154 C 368.758 654.944 249.166 847.23 218.072 1067.96 L 283.092 1079.158 L 317.593 1106.421 Z " fill="rgb(111,193,255)"/><path d=" M 1514.207 678.113 L 1514.207 714.65 L 1406.625 745.096 L 1416.772 822.238 L 1355.874 784.94 L 1297.013 832.385 L 1335.58 889.221 L 1394.448 897.338 L 1493.908 818.177 L 1522.323 854.714 C 1522.323 854.714 1504.055 897.338 1522.323 911.551 C 1540.598 925.765 1617.353 948.089 1617.353 948.089 L 1617.353 879.075 L 1564.952 832.385 L 1599.465 803.969 L 1662.387 856.745 L 1642.088 893.282 L 1759.822 948.089 C 1759.822 948.089 1772.733 933.148 1791.533 911.076 C 1732.419 743.933 1620.284 601.866 1475.309 505.086 L 1441.132 633.459 L 1514.207 678.113 Z " fill="rgb(111,193,255)"/></g><path d=" M 396.564 1532.996 L 384.241 1520.679 L 350.142 1527.671 L 350.142 1561.233 L 314.354 1581.454 C 330.475 1610.07 348.274 1637.613 367.622 1663.954 L 393.493 1659.121 L 444.3 1622.762 L 447.097 1589.671 L 396.558 1565.428 L 396.558 1532.996 L 396.564 1532.996 Z " fill="rgb(111,193,255)"/></g><path d=" M 1023.983 1996.522 C 769.747 1996.522 542.577 1879.713 393.26 1696.883 C 748.983 1587.855 874.67 1487.855 940.67 1127.522 L 1105.608 1127.522 C 1171.608 1487.855 1299.083 1587.956 1654.805 1696.983 C 1505.488 1879.813 1278.218 1996.522 1023.983 1996.522 L 1023.983 1996.522 Z " fill="rgb(245,251,255)"/></g><g><path d=" M 1154.636 991.936 C 1240.43 1029.762 1299.897 1091.097 1326.276 1158.593 C 1330.018 1168.168 1336.114 1168.176 1339.879 1158.61 C 1389.255 1033.197 1342.206 873.172 1214.338 783.956 C 1201.928 859.991 1181.625 931.075 1154.636 991.936 Z " fill="rgb(0,62,102)"/><path d=" M 826.027 782.507 C 696.481 874.299 648.559 1031.96 697.872 1154.821 C 701.701 1164.362 708.025 1164.405 711.985 1154.918 C 738.989 1090.224 798.924 1029.648 884.656 990.379 C 856.948 926.103 837.495 855.568 826.027 782.507 Z " fill="rgb(0,62,102)"/><path d=" M 1026.442 1300.105 C 1112.971 1195.014 1127.965 1110.605 1077.046 1050.472 L 969.378 1049.58 C 915.307 1110.461 939.307 1195.711 1020.64 1300.011 C 1022.208 1302.047 1024.808 1302.089 1026.442 1300.105 Z " fill="rgb(235,172,36)"/><path d=" M 946.299 978.504 L 1101.442 978.623 C 1111.79 978.631 1120.185 987.039 1120.177 997.388 L 1120.15 1033.417 C 1120.142 1043.765 1111.734 1052.16 1101.385 1052.152 L 946.243 1052.033 C 935.894 1052.026 927.499 1043.618 927.507 1033.269 L 927.535 997.24 C 927.543 986.892 935.951 978.497 946.299 978.504 Z " fill="rgb(179,179,179)"/><line x1="912.64" y1="1069.044" x2="1132.64" y2="1069.044"/><path d=" M 1031.814 55.041 C 1269.08 276.014 1273.163 766.281 1142.797 1017.288 C 1140.427 1021.849 1134.511 1024.342 1129.591 1022.851 C 1057.921 1001.125 978.573 1000.773 909.349 1021.792 C 904.431 1023.286 898.584 1020.76 896.301 1016.155 C 748.328 717.684 802.791 246.7 1016.014 54.904 C 1020.409 50.951 1027.488 51.012 1031.814 55.041 Z " fill="rgb(255,255,255)"/><path d=" M 1177.004 288.427 C 1180.554 298.458 1183.825 308.601 1186.99 318.846 Q 1008.015 302.294 859.9 314.661 C 862.935 305.253 866.042 295.96 869.374 286.782 C 965.316 264.854 1165.601 277.05 1177.004 288.427 Z " fill="rgb(235,172,36)"/><path d=" M 869.374 286.782 C 904.675 189.558 956.705 105.984 1017.007 53.95 C 1020.898 50.593 1027.154 50.664 1030.968 54.11 C 1093.782 110.862 1144.485 195.622 1177.004 288.427 C 1046.299 278.749 943.786 278.23 869.374 286.782 Z " fill="rgb(192,52,41)"/><path d=" M 959.534 563.314 C 924.95 527.936 925.594 471.137 960.972 436.553 C 996.349 401.969 1053.149 402.613 1087.733 437.991 C 1122.317 473.368 1121.672 530.168 1086.295 564.752 C 1050.917 599.336 994.118 598.691 959.534 563.314 Z " fill="rgb(179,179,179)"/><path d=" M 974.185 548.991 C 947.506 521.7 948.003 477.883 975.294 451.204 C 1002.586 424.525 1046.403 425.022 1073.082 452.314 C 1099.761 479.605 1099.264 523.422 1071.972 550.101 C 1044.681 576.78 1000.864 576.283 974.185 548.991 Z " fill="rgb(0,62,102)"/><path d=" M 1022.736 705.354 C 1023.168 704.617 1023.6 703.881 1024.035 703.154 C 1085.679 808.624 1079.654 1083.962 1023.54 1175.013 C 1023.096 1174.344 1022.655 1173.662 1022.215 1172.978 L 1022.215 1172.978 C 968.24 1087.31 961.805 811.039 1022.736 705.354 Z " fill="rgb(0,62,102)"/></g></g></g></svg>